<mxfile host="Electron" modified="2024-02-21T12:13:19.185Z" agent="Mozilla/5.0 (Windows NT 10.0; Win64; x64) AppleWebKit/537.36 (KHTML, like Gecko) draw.io/23.1.5 Chrome/120.0.6099.109 Electron/28.1.0 Safari/537.36" etag="gLYb2Eo_m1jVaR35bbQm" version="23.1.5" type="device">
  <diagram name="Page-1" id="R0wjLpWjG5bwHOQ1bxZC">
    <mxGraphModel dx="1434" dy="836" grid="1" gridSize="10" guides="1" tooltips="1" connect="1" arrows="1" fold="1" page="1" pageScale="1" pageWidth="827" pageHeight="1169" math="0" shadow="0">
      <root>
        <mxCell id="0" />
        <mxCell id="1" parent="0" />
        <mxCell id="idGsmURpZj5IsuFKCBlc-5" value="" style="rounded=0;whiteSpace=wrap;html=1;" vertex="1" parent="1">
          <mxGeometry x="370" y="260" width="250" height="230" as="geometry" />
        </mxCell>
        <mxCell id="idGsmURpZj5IsuFKCBlc-6" value="Authentification" style="text;html=1;align=center;verticalAlign=middle;whiteSpace=wrap;rounded=0;" vertex="1" parent="1">
          <mxGeometry x="465" y="260" width="60" height="30" as="geometry" />
        </mxCell>
        <mxCell id="idGsmURpZj5IsuFKCBlc-7" value="Connexion" style="ellipse;whiteSpace=wrap;html=1;" vertex="1" parent="1">
          <mxGeometry x="435" y="290" width="120" height="80" as="geometry" />
        </mxCell>
        <mxCell id="idGsmURpZj5IsuFKCBlc-8" value="Deconnexion" style="ellipse;whiteSpace=wrap;html=1;" vertex="1" parent="1">
          <mxGeometry x="435" y="390" width="120" height="80" as="geometry" />
        </mxCell>
        <mxCell id="idGsmURpZj5IsuFKCBlc-9" value="" style="rounded=0;whiteSpace=wrap;html=1;" vertex="1" parent="1">
          <mxGeometry x="110" y="290" width="190" height="170" as="geometry" />
        </mxCell>
        <mxCell id="idGsmURpZj5IsuFKCBlc-10" value="Utilisateur" style="shape=umlActor;verticalLabelPosition=bottom;verticalAlign=top;html=1;outlineConnect=0;" vertex="1" parent="1">
          <mxGeometry x="190" y="340" width="30" height="60" as="geometry" />
        </mxCell>
        <mxCell id="idGsmURpZj5IsuFKCBlc-11" value="&amp;lt;&amp;lt;actor&amp;gt;&amp;gt;" style="text;html=1;align=center;verticalAlign=middle;whiteSpace=wrap;rounded=0;" vertex="1" parent="1">
          <mxGeometry x="175" y="290" width="60" height="30" as="geometry" />
        </mxCell>
        <mxCell id="idGsmURpZj5IsuFKCBlc-12" value="" style="endArrow=none;startArrow=none;endFill=0;startFill=0;endSize=8;html=1;verticalAlign=bottom;labelBackgroundColor=none;strokeWidth=3;rounded=0;exitX=0.5;exitY=0.5;exitDx=0;exitDy=0;exitPerimeter=0;entryX=0;entryY=0.5;entryDx=0;entryDy=0;" edge="1" parent="1" source="idGsmURpZj5IsuFKCBlc-10" target="idGsmURpZj5IsuFKCBlc-7">
          <mxGeometry width="160" relative="1" as="geometry">
            <mxPoint x="240" y="350" as="sourcePoint" />
            <mxPoint x="400" y="350" as="targetPoint" />
          </mxGeometry>
        </mxCell>
        <mxCell id="idGsmURpZj5IsuFKCBlc-13" value="" style="endArrow=none;startArrow=none;endFill=0;startFill=0;endSize=8;html=1;verticalAlign=bottom;labelBackgroundColor=none;strokeWidth=3;rounded=0;exitX=0.5;exitY=0.5;exitDx=0;exitDy=0;exitPerimeter=0;entryX=0;entryY=0.5;entryDx=0;entryDy=0;" edge="1" parent="1" source="idGsmURpZj5IsuFKCBlc-10" target="idGsmURpZj5IsuFKCBlc-8">
          <mxGeometry width="160" relative="1" as="geometry">
            <mxPoint x="155" y="380" as="sourcePoint" />
            <mxPoint x="445" y="340" as="targetPoint" />
          </mxGeometry>
        </mxCell>
      </root>
    </mxGraphModel>
  </diagram>
</mxfile>
